<svg xmlns="http://www.w3.org/2000/svg" viewBox="0 0 209.64 152.87"><defs><style>.cls-1{fill:#ebebeb;}.cls-2{fill:#f0f0f0;}.cls-3{fill:#f5f5f5;}.cls-4{fill:#e6e6e6;}.cls-13,.cls-20,.cls-21,.cls-5,.cls-9{fill:#fff;}.cls-6{fill:#e0e0e0;}.cls-7{fill:#fafafa;}.cls-11,.cls-12,.cls-15,.cls-8{fill:#407bff;}.cls-14,.cls-9{opacity:0.3;}.cls-10{fill:#263238;}.cls-11,.cls-13{opacity:0.4;}.cls-12{opacity:0.1;}.cls-15{opacity:0.6;}.cls-16{fill:#ff5652;}.cls-17{fill:#ff8b7b;}.cls-18,.cls-19{opacity:0.2;}.cls-20{opacity:0.5;}.cls-21{opacity:0.7;}</style></defs><title>Asset 1desk programmer</title><g id="Layer_2" data-name="Layer 2"><g id="Background_Complete" data-name="Background Complete"><rect class="cls-1" y="137.29" width="209.64" height="0.1"/><path class="cls-1" d="M99.38,118.59h-81A2.39,2.39,0,0,1,16,116.2V2.39A2.39,2.39,0,0,1,18.41,0h81a2.39,2.39,0,0,1,2.39,2.39V116.2A2.39,2.39,0,0,1,99.38,118.59ZM18.41.1a2.3,2.3,0,0,0-2.29,2.29V116.2a2.3,2.3,0,0,0,2.29,2.29h81a2.3,2.3,0,0,0,2.29-2.29V2.39A2.3,2.3,0,0,0,99.38.1Z"/><path class="cls-1" d="M190.07,118.59h-81a2.39,2.39,0,0,1-2.39-2.39V2.39A2.39,2.39,0,0,1,109.1,0h81a2.39,2.39,0,0,1,2.39,2.39V116.2A2.39,2.39,0,0,1,190.07,118.59ZM109.1.1a2.29,2.29,0,0,0-2.28,2.29V116.2a2.29,2.29,0,0,0,2.28,2.29h81a2.3,2.3,0,0,0,2.29-2.29V2.39A2.3,2.3,0,0,0,190.07.1Z"/><rect class="cls-1" x="73.14" y="141.29" width="10.9" height="0.1"/><rect class="cls-1" x="22" y="140.15" width="22.68" height="0.1"/><rect class="cls-1" x="61.69" y="145.18" width="11.03" height="0.1"/><rect class="cls-1" x="108.27" y="144.48" width="16.28" height="0.1"/><rect class="cls-1" x="128.29" y="144.48" width="4.48" height="0.1"/><rect class="cls-1" x="165.76" y="142.71" width="22.87" height="0.1"/><rect class="cls-2" x="159.77" y="80.96" width="19.14" height="52.61" transform="translate(338.69 214.54) rotate(180)"/><rect class="cls-2" x="76.2" y="133.57" width="99.04" height="3.72" transform="translate(251.44 270.87) rotate(180)"/><rect class="cls-3" x="72.53" y="80.96" width="87.25" height="52.61"/><rect class="cls-2" x="72.53" y="84.53" width="87.58" height="19.26"/><rect class="cls-2" x="72.53" y="107.29" width="87.58" height="19.26"/><rect class="cls-4" x="159.77" y="84.53" width="3.31" height="19.26" transform="translate(322.86 188.31) rotate(180)"/><rect class="cls-4" x="159.77" y="107.29" width="3.31" height="19.26" transform="translate(322.86 233.84) rotate(180)"/><rect class="cls-2" x="69.98" y="77.73" width="89.8" height="3.24" transform="translate(229.75 158.69) rotate(180)"/><rect class="cls-4" x="159.77" y="77.73" width="21.82" height="3.24"/><rect class="cls-2" x="137.59" y="11.21" width="45.05" height="56.62" transform="translate(320.22 79.04) rotate(180)"/><rect class="cls-3" x="127.64" y="11.21" width="53.26" height="56.62" transform="translate(308.55 79.04) rotate(180)"/><rect class="cls-5" x="130.42" y="17.35" width="47.7" height="44.34" transform="translate(114.75 193.79) rotate(-90)"/><path class="cls-4" d="M159.18,44.68l8.48-3.93V38.28l-8.48-3.93v3l5.15,2.21-5.15,2.22Z"/><path class="cls-4" d="M153.66,33.21h-1.55l2.74,12.62h1.54Z"/><path class="cls-4" d="M149.36,41.74l-5.15-2.22,5.15-2.21v-3l-8.47,3.93v2.47l8.47,3.93Z"/><rect class="cls-2" x="49.15" y="41.2" width="2.95" height="96.09" transform="translate(101.25 178.5) rotate(180)"/><path class="cls-2" d="M48.53,136.62l-.08-.41a2.3,2.3,0,0,0,1.4-1.22c.77-1.36,1.23-4.25-.9-10.33-3.29-9.35-1.33-16.9,2.58-31.94.68-2.62,1.46-5.59,2.26-8.8,3-12,.22-19.48-2-25.47-1.73-4.65-3.1-8.32-1.35-12.57l.39.16c-1.69,4.1-.35,7.7,1.35,12.27,2.26,6,5.06,13.57,2,25.71-.81,3.21-1.58,6.18-2.26,8.8-3.89,15-5.84,22.47-2.6,31.71,2.2,6.24,1.68,9.26.86,10.69A2.69,2.69,0,0,1,48.53,136.62Z"/><polygon class="cls-2" points="45.28 137.29 55.97 137.29 52.99 135.54 48.25 135.54 45.28 137.29"/><polygon class="cls-3" points="29.48 53.44 71.76 53.44 67.11 17.91 34.13 17.91 29.48 53.44"/><polygon class="cls-2" points="92.19 59.3 114.77 59.3 111.8 77.73 95.16 77.73 92.19 59.3"/><path class="cls-6" d="M101.26,65.29c6.16-2.22,10.87-5.57,5.6-12.34s-13.45-6.74-19-3.74c-7,3.82-5.61,14.86-5.61,14.86S95.11,67.52,101.26,65.29Z"/><path class="cls-4" d="M107.25,59.13c-4.71-3.21-8-6.92-2.59-10.84s12.2-1.91,16.25,1.73c5.16,4.64,2.19,12.78,2.19,12.78S112,62.33,107.25,59.13Z"/><path class="cls-2" d="M99,51c5.51-.33,10.13-1.77,7.52-7.74s-9.21-7.63-14.39-6.61C85.5,38,83.94,46.2,83.94,46.2S93.45,51.34,99,51Z"/><path class="cls-1" d="M105.87,47.48c-4.58-1.47-8.18-3.68-4.68-8.16s9.43-4.46,13.58-2.48c5.29,2.52,4.82,9.83,4.82,9.83S110.45,49,105.87,47.48Z"/><path class="cls-3" d="M97.28,39.84c4.57,1.5,8.78,1.83,8.59-3.85s-5-9.16-9.52-10c-5.76-1.07-9.69,5.11-9.69,5.11S92.71,38.33,97.28,39.84Z"/><path class="cls-7" d="M108.88,37.4c-3.27.22-6.1-.27-5-4s4.85-5.2,8-5c4,.26,5.53,5,5.53,5S112.16,37.18,108.88,37.4Z"/></g><g id="Desk"><rect class="cls-8" x="33.34" y="82.24" width="142.45" height="5.11"/><rect class="cls-9" x="33.34" y="82.24" width="38.12" height="5.11"/><polygon class="cls-8" points="72.07 87.35 68.75 87.35 70.49 151.41 72.07 151.41 73.65 151.41 75.39 87.35 72.07 87.35"/><polygon class="cls-9" points="70.49 151.41 72.07 151.41 72.07 88.72 68.81 89.32 70.49 151.41"/><polygon class="cls-8" points="40.64 87.35 37.32 87.35 39.06 151.41 40.64 151.41 42.22 151.41 43.95 87.35 40.64 87.35"/><polygon class="cls-9" points="39.06 151.41 40.64 151.41 40.64 88.72 37.37 89.32 39.06 151.41"/><polygon class="cls-8" points="168.49 87.35 165.18 87.35 166.91 151.41 168.49 151.41 170.07 151.41 171.81 87.35 168.49 87.35"/><polygon class="cls-9" points="166.91 151.41 168.49 151.41 168.49 88.72 165.23 89.32 166.91 151.41"/><polygon class="cls-8" points="137.06 87.35 133.74 87.35 135.48 151.41 137.06 151.41 138.64 151.41 140.38 87.35 137.06 87.35"/><polygon class="cls-9" points="135.48 151.41 137.06 151.41 137.06 88.72 133.79 89.32 135.48 151.41"/><path class="cls-10" d="M101,54.88H67.06a1.74,1.74,0,0,0-1.74,2.21l4.51,21.53a2.88,2.88,0,0,0,2.67,2.21h33.9a1.75,1.75,0,0,0,1.75-2.21l-4.52-21.53A2.87,2.87,0,0,0,101,54.88Z"/><path class="cls-5" d="M72.82,79.6A2,2,0,0,1,71,78.09L66.49,56.56a1,1,0,0,1,.16-.84.9.9,0,0,1,.73-.3h33.89a2,2,0,0,1,1.81,1.5l4.51,21.54a1,1,0,0,1-.15.83.92.92,0,0,1-.73.31Z"/><path class="cls-11" d="M98.39,77.88l-4.28-20.4a.84.84,0,0,1,.82-1h5.5a.82.82,0,0,1,.81.66l4.28,20.4a.84.84,0,0,1-.82,1H99.2A.83.83,0,0,1,98.39,77.88Z"/><polygon class="cls-8" points="69.32 58.25 69.13 57.36 75.92 57.36 76.11 58.25 69.32 58.25"/><polygon class="cls-1" points="72.45 60.44 72.27 59.56 84.17 59.56 84.36 60.44 72.45 60.44"/><polygon class="cls-1" points="73.08 62.64 72.89 61.75 86.24 61.75 86.42 62.64 73.08 62.64"/><polygon class="cls-1" points="73.71 64.83 73.52 63.95 84.27 63.95 84.45 64.83 73.71 64.83"/><polygon class="cls-8" points="71.38 68.39 71.2 67.51 75.49 67.51 75.68 68.39 71.38 68.39"/><polygon class="cls-1" points="74.52 70.59 74.33 69.7 79.57 69.7 79.75 70.59 74.52 70.59"/><polygon class="cls-1" points="81 70.59 80.82 69.7 86.06 69.7 86.24 70.59 81 70.59"/><polygon class="cls-1" points="75.14 72.78 74.96 71.9 92.65 71.9 92.84 72.78 75.14 72.78"/><polygon class="cls-1" points="75.77 74.98 75.58 74.09 89.08 74.09 89.26 74.98 75.77 74.98"/><path class="cls-10" d="M116.78,80.7H72.18c-1.21,0-2,.69-1.75,1.54h49A2.83,2.83,0,0,0,116.78,80.7Z"/><path class="cls-12" d="M57.53,49.43,53.25,29a.83.83,0,0,1,.82-1H88.7a.83.83,0,0,1,.81.66l4.28,20.4a.83.83,0,0,1-.81,1H58.34A.82.82,0,0,1,57.53,49.43Z"/><polygon class="cls-8" points="69.84 28.7 62.57 28.7 62.41 27.92 69.68 27.92 69.84 28.7"/><polygon class="cls-11" points="68.66 29.95 65.74 29.95 65.58 29.17 68.5 29.17 68.66 29.95"/><polygon class="cls-11" points="73.51 29.95 69.02 29.95 68.86 29.17 73.35 29.17 73.51 29.95"/><polygon class="cls-11" points="75.47 31.2 66 31.2 65.84 30.42 75.31 30.42 75.47 31.2"/><polygon class="cls-11" points="74.27 32.45 66.26 32.45 66.1 31.66 74.11 31.66 74.27 32.45"/><polygon class="cls-11" points="79.58 45.7 74.48 45.7 74.65 46.48 79.74 46.48 79.58 45.7"/><polygon class="cls-8" points="73.22 43.99 65.76 43.99 65.59 43.21 73.06 43.21 73.22 43.99"/><polygon class="cls-11" points="76.23 46.95 69.28 46.95 69.45 47.73 76.39 47.73 76.23 46.95"/><polygon class="cls-11" points="74.12 45.7 69.02 45.7 69.19 46.48 74.28 46.48 74.12 45.7"/><polygon class="cls-11" points="78.96 44.45 68.76 44.45 68.93 45.24 79.12 45.24 78.96 44.45"/><polygon class="cls-8" points="69.59 22.89 61.36 22.89 61.2 22.1 69.42 22.1 69.59 22.89"/><polygon class="cls-11" points="73.65 25.84 64.58 25.84 64.74 26.63 73.81 26.63 73.65 25.84"/><polygon class="cls-11" points="71.83 24.6 64.31 24.6 64.48 25.38 71.99 25.38 71.83 24.6"/><polygon class="cls-11" points="72.33 23.35 64.06 23.35 64.22 24.13 72.5 24.13 72.33 23.35"/><polygon class="cls-8" points="69.49 34.48 63.77 34.48 63.61 33.69 69.33 33.69 69.49 34.48"/><polygon class="cls-11" points="78.47 37.44 67.3 37.44 67.46 38.22 78.64 38.22 78.47 37.44"/><polygon class="cls-11" points="71.67 36.19 67.04 36.19 67.2 36.97 71.83 36.97 71.67 36.19"/><polygon class="cls-11" points="76.69 36.19 72.06 36.19 72.23 36.97 76.86 36.97 76.69 36.19"/><polygon class="cls-11" points="76.97 34.94 66.78 34.94 66.94 35.72 77.14 35.72 76.97 34.94"/><polygon class="cls-11" points="76.96 41.18 68.08 41.18 68.24 41.96 77.12 41.96 76.96 41.18"/><polygon class="cls-11" points="70.4 39.93 67.82 39.93 67.98 40.71 70.56 40.71 70.4 39.93"/><polygon class="cls-11" points="74.44 39.93 70.76 39.93 70.92 40.71 74.6 40.71 74.44 39.93"/><polygon class="cls-11" points="77.75 38.68 67.56 38.68 67.72 39.46 77.92 39.46 77.75 38.68"/><polygon class="cls-11" points="85.79 38.47 82.14 38.47 81.97 37.69 85.63 37.69 85.79 38.47"/><polygon class="cls-11" points="91.87 38.47 86.24 38.47 86.08 37.69 91.7 37.69 91.87 38.47"/><polygon class="cls-11" points="94.25 39.72 82.39 39.72 82.23 38.94 94.09 38.94 94.25 39.72"/><polygon class="cls-11" points="92.68 40.97 82.66 40.97 82.49 40.19 92.52 40.19 92.68 40.97"/><polygon class="cls-11" points="97.17 33.51 85.81 33.51 85.97 34.29 97.33 34.29 97.17 33.51"/><polygon class="cls-11" points="94.96 32.26 85.55 32.26 85.72 33.05 95.13 33.05 94.96 32.26"/><polygon class="cls-8" points="93.26 31.02 82.9 31.02 83.06 31.8 93.42 31.8 93.26 31.02"/><polygon class="cls-11" points="97.68 45.96 83.69 45.96 83.86 46.74 97.84 46.74 97.68 45.96"/><polygon class="cls-11" points="89.23 44.71 83.44 44.71 83.6 45.49 89.39 45.49 89.23 44.71"/><polygon class="cls-11" points="95.52 44.71 89.72 44.71 89.89 45.49 95.68 45.49 95.52 44.71"/><polygon class="cls-11" points="95.94 43.46 83.17 43.46 83.34 44.24 96.1 44.24 95.94 43.46"/><polygon class="cls-11" points="95.59 49.7 84.47 49.7 84.64 50.48 95.75 50.48 95.59 49.7"/><polygon class="cls-11" points="87.45 48.45 84.22 48.45 84.38 49.23 87.61 49.23 87.45 48.45"/><polygon class="cls-11" points="92.5 48.45 87.89 48.45 88.05 49.23 92.67 49.23 92.5 48.45"/><polygon class="cls-11" points="96.72 47.2 83.95 47.2 84.12 47.99 96.88 47.99 96.72 47.2"/><polygon class="cls-11" points="62.73 50.67 54.03 50.67 54.19 51.45 62.89 51.45 62.73 50.67"/><polygon class="cls-11" points="60.15 49.42 53.77 49.42 53.93 50.2 60.32 50.2 60.15 49.42"/><polygon class="cls-11" points="66.99 49.42 60.61 49.42 60.77 50.2 67.15 50.2 66.99 49.42"/><polygon class="cls-11" points="66.28 48.17 53.51 48.17 53.67 48.95 66.44 48.95 66.28 48.17"/><polygon class="cls-8" points="163.92 74.09 158.54 74.09 159.16 82.24 163.29 82.24 163.92 74.09"/><polygon class="cls-13" points="163.92 74.09 158.54 74.09 159.16 82.24 163.29 82.24 163.92 74.09"/><polygon class="cls-10" points="46.6 68.44 54.34 68.44 51.69 82.24 43.95 82.24 46.6 68.44"/><polygon class="cls-8" points="56.45 64.74 45.52 64.74 48.58 82.24 59.51 82.24 56.45 64.74"/><polygon class="cls-8" points="44.88 64.74 45.52 64.74 48.58 82.24 47.94 82.24 44.88 64.74"/><polygon class="cls-14" points="44.88 64.74 45.52 64.74 48.58 82.24 47.94 82.24 44.88 64.74"/><polygon class="cls-5" points="50.15 80.37 47.75 66.61 54.88 66.61 57.29 80.37 50.15 80.37"/><polygon class="cls-15" points="56.95 80.37 54.54 66.61 54.88 66.61 57.29 80.37 56.95 80.37"/></g><g id="Character"><path class="cls-10" d="M110.6,42.35c.15.34.1.69-.12.8s-.52-.09-.68-.43-.1-.69.12-.79S110.44,42,110.6,42.35Z"/><path class="cls-16" d="M110.73,43a13.29,13.29,0,0,1-.28,3.62,2.14,2.14,0,0,0,1.75-.45Z"/><path class="cls-10" d="M110.64,39.6a.29.29,0,0,1-.13,0,1.71,1.71,0,0,0-1.38.75.22.22,0,1,1-.37-.22,2.15,2.15,0,0,1,1.73-1,.22.22,0,0,1,.23.21A.23.23,0,0,1,110.64,39.6Z"/><path class="cls-17" d="M122.94,41.85c1.3,4.48,2.74,8,4.51,9.95,0,0,0,3.53-6,5.21-6.6,1.84-4.07-2.4-4.07-2.4,3.37-1.87,3-4.69.51-5.76Z"/><path class="cls-10" d="M128.85,50.94c-.12-1.64-.27-3.51-1.28-3.56s-7.57,2.84-8.95,4.87,1.31,4,1.31,4Z"/><path class="cls-17" d="M115.63,76.33l-5.57-.18.1,4.67s4.86-.5,5.08-1.78Z"/><polygon class="cls-17" points="107.11 78.44 106.53 80.83 110.16 80.82 110.06 76.15 107.11 78.44"/><path class="cls-8" d="M138,56.92l-.12,1.2c0,.38-.09.76-.14,1.15-.1.76-.22,1.51-.35,2.27-.25,1.51-.58,3-.95,4.53s-.83,3-1.39,4.56c-.29.77-.6,1.53-1,2.31a18.81,18.81,0,0,1-1.26,2.37,6.92,6.92,0,0,1-.39.61c-.14.2-.28.4-.44.61s-.3.4-.49.61l-.28.31a2.3,2.3,0,0,1-.31.33,9.59,9.59,0,0,1-2.9,2,17.13,17.13,0,0,1-5.21,1.32c-.82.1-1.63.14-2.43.16s-1.58,0-2.36,0-1.55-.12-2.32-.21-1.51-.21-2.33-.37l.14-4.38a69.55,69.55,0,0,0,7.92-1.89,16.94,16.94,0,0,0,1.71-.66,8.36,8.36,0,0,0,1.35-.73,1.94,1.94,0,0,0,.61-.59l.12-.2c.05-.06.1-.17.16-.26a2.52,2.52,0,0,0,.16-.29l.17-.33a22.05,22.05,0,0,0,1.21-3.33c.34-1.23.67-2.52.93-3.85s.51-2.67.74-4l.32-2,.28-2Z"/><path class="cls-18" d="M138,56.92l-.12,1.2c0,.38-.09.76-.14,1.15-.1.76-.22,1.51-.35,2.27-.25,1.51-.58,3-.95,4.53s-.83,3-1.39,4.56c-.29.77-.6,1.53-1,2.31a18.81,18.81,0,0,1-1.26,2.37,6.92,6.92,0,0,1-.39.61c-.14.2-.28.4-.44.61s-.3.4-.49.61l-.28.31a2.3,2.3,0,0,1-.31.33,9.59,9.59,0,0,1-2.9,2,17.13,17.13,0,0,1-5.21,1.32c-.82.1-1.63.14-2.43.16s-1.58,0-2.36,0-1.55-.12-2.32-.21-1.51-.21-2.33-.37l.14-4.38a69.55,69.55,0,0,0,7.92-1.89,16.94,16.94,0,0,0,1.71-.66,8.36,8.36,0,0,0,1.35-.73,1.94,1.94,0,0,0,.61-.59l.12-.2c.05-.06.1-.17.16-.26a2.52,2.52,0,0,0,.16-.29l.17-.33a22.05,22.05,0,0,0,1.21-3.33c.34-1.23.67-2.52.93-3.85s.51-2.67.74-4l.32-2,.28-2Z"/><path class="cls-8" d="M113.26,62.48a137,137,0,0,1,3.49,27.31H141.3c.14-3-.37-20.11-2.84-32.48a8.56,8.56,0,0,0-10.24-6.69l-.11,0a91,91,0,0,0-10.05,2.8l-.11,0A7.7,7.7,0,0,0,113.26,62.48Z"/><path class="cls-18" d="M114.86,70.34c.19,1.17.38,2.42.57,3.73,2-2.1,2.64-8.52,2.64-8.52Z"/><path class="cls-17" d="M94.46,76.64l-5.55-.53-.19,4.67a5.24,5.24,0,0,0,5.18-1.47Z"/><polygon class="cls-17" points="86.24 77.49 84.45 80.7 88.72 80.78 88.91 76.11 86.24 77.49"/><path class="cls-8" d="M122.47,60.34c-.39.74-.73,1.39-1.11,2.06s-.76,1.32-1.16,2c-.79,1.31-1.61,2.59-2.47,3.86a63.52,63.52,0,0,1-5.75,7.4,31.85,31.85,0,0,1-3.64,3.47c-.17.14-.36.27-.54.41a5.56,5.56,0,0,1-.61.43,7.07,7.07,0,0,1-.73.44c-.25.14-.5.26-.74.37a13.93,13.93,0,0,1-2.89.88,18.25,18.25,0,0,1-5.25.11,21.25,21.25,0,0,1-2.43-.43c-.4-.09-.79-.19-1.18-.31s-.76-.25-1.21-.41l.69-4.33a28.78,28.78,0,0,0,7.44-1.7,5.3,5.3,0,0,0,1.22-.7,2.38,2.38,0,0,0,.4-.35s.16-.15.26-.24.21-.18.31-.29a32.53,32.53,0,0,0,2.52-2.83c1.65-2.09,3.22-4.41,4.73-6.78q1.13-1.78,2.22-3.6l1.08-1.83,1.05-1.79Z"/><polygon class="cls-17" points="115.73 147.86 111.14 147.86 108.84 137.23 113.43 137.23 115.73 147.86"/><path class="cls-10" d="M110.89,146.88h5.16a.41.41,0,0,1,.39.31l.9,4.08a.67.67,0,0,1-.67.82c-1.8,0-2.67-.14-4.94-.14-1.4,0-3.19.15-5.11.15s-2.18-1.91-1.39-2.08c3.53-.77,3.78-1.84,4.91-2.86A1.14,1.14,0,0,1,110.89,146.88Z"/><g class="cls-19"><polygon points="113.43 137.24 108.84 137.24 110.12 143.12 114.62 142.71 113.43 137.24"/></g><path class="cls-17" d="M121.47,36.46c1.66,4.24,2.84,6.64,1.74,9.72-1.66,4.64-7.63,5.11-10.52,1.44-2.6-3.3-4.87-9.68-1.59-13.19A6.2,6.2,0,0,1,121.47,36.46Z"/><path class="cls-10" d="M113.41,42.81l-1.21,1.62s-1.41-3.5-.87-5.11c-.69-1.37-2.08.64-2.6-2s1.74-5.51,2.6-6.1a3.1,3.1,0,0,1,.11.95,11.75,11.75,0,0,1,8.22-2.59,2.84,2.84,0,0,0-.46,1.23s5,.85,6.11,3.66a5.34,5.34,0,0,0-1.25-.45,6.09,6.09,0,0,1,1,4.5,46.86,46.86,0,0,0-.56,6.93c0,1.19-3.22,3.47-5.21,1S113.41,42.81,113.41,42.81Z"/><path class="cls-17" d="M115.49,41.9a4.66,4.66,0,0,1-.21,3c-.53,1.23-1.63.95-2.17-.15s-.8-2.81.06-3.69S115.16,40.71,115.49,41.9Z"/><path class="cls-8" d="M124.11,89.79s-21.32,7.73-21.94,18a71.37,71.37,0,0,0,6.54,33.75l7.07-.75s-1.26-6.07-2.2-23.13c-1.18-21.45,35.22.5,27.72-27.83Z"/><path class="cls-20" d="M124.11,89.79s-21.32,7.73-21.94,18a71.37,71.37,0,0,0,6.54,33.75l7.07-.75s-1.26-6.07-2.2-23.13c-1.18-21.45,35.22.5,27.72-27.83Z"/><path class="cls-8" d="M106.76,138.9s1.12,3.14,1.12,3.14l8.82-.87-.44-2.85Z"/><polygon class="cls-17" points="95.9 148.38 91.31 148.38 89.97 137.75 94.56 137.75 95.9 148.38"/><path class="cls-10" d="M91.28,146.88h5a.4.4,0,0,1,.39.31l.91,4.08a.66.66,0,0,1-.66.82c-1.8,0-4.42-.13-6.69-.13-2.66,0-3.17.15-6.28.16-1.89,0-2.41-1.91-1.62-2.08,3.59-.79,4.73-.88,7.83-2.79A2.12,2.12,0,0,1,91.28,146.88Z"/><polygon class="cls-18" points="89.97 137.76 90.7 143.54 95.26 143.24 94.57 137.76 89.97 137.76"/><path class="cls-8" d="M116.75,89.79s-34.93,3.1-34.55,20.64c.39,18.25,7.21,30.55,7.21,30.55h6.82s-1.29-9.46-1.07-27.42c.07-5.39,11-7.16,21.57-7.79,9.17-.54,17.76-5.77,21.32-14.24l.73-1.74Z"/><path class="cls-20" d="M116.75,89.79s-34.93,3.1-34.55,20.64c.39,18.25,7.21,30.55,7.21,30.55h6.82s-1.29-9.46-1.07-27.42c.07-5.39,11-7.16,21.57-7.79,9.17-.54,17.76-5.77,21.32-14.24l.73-1.74Z"/><path class="cls-8" d="M87.81,139.15S89,142.3,89,142.3l8.23-.58-.48-2.86Z"/><path class="cls-10" d="M125.92,70.07l-4.43,17.08a53.46,53.46,0,0,0-1.71,13.4v7.94a3.47,3.47,0,0,0,3.31,3.62H145.8a3.47,3.47,0,0,0,3.3-3.62v-7.94a53.46,53.46,0,0,1,1.71-13.4l3.91-15.08a3.58,3.58,0,0,0-3.17-4.63H129.09A3.36,3.36,0,0,0,125.92,70.07Z"/><path class="cls-10" d="M97.66,103.85l.75,4.23a4.8,4.8,0,0,0,4.37,4H128c2,0,3.35-1.8,3-4l-.75-4.23a5.46,5.46,0,0,0-5-4.59H101C98.73,99.26,97.22,101.31,97.66,103.85Z"/><polygon class="cls-8" points="130.47 116.37 117.24 116.37 115.95 112.11 131.76 112.11 130.47 116.37"/><rect class="cls-8" x="121.49" y="116.37" width="4.73" height="31.62"/><polygon class="cls-21" points="126.22 147.99 121.49 147.99 121.49 117.13 126.22 117.61 126.22 147.99"/><polygon class="cls-21" points="125.06 147.99 123.94 147.99 123.94 117.38 125.06 117.49 125.06 147.99"/><path class="cls-8" d="M134.72,152.87H113a.6.6,0,0,1-.36-1.08l3.45-2.53a9.64,9.64,0,0,1,5.71-1.87h4.13a9.64,9.64,0,0,1,5.71,1.87l3.45,2.53A.6.6,0,0,1,134.72,152.87Z"/></g></g></svg>