<svg xmlns="http://www.w3.org/2000/svg" viewBox="0 0 290.18 229.3"><defs><style>.cls-1{isolation:isolate;}.cls-2{fill:#e03c08;}.cls-3{fill:#f86223;}.cls-4{fill:#f9c947;}.cls-5{fill:#85bebc;}.cls-6{fill:#fff;}.cls-7{fill:#b8dfdc;}.cls-8{fill:#9fccc8;}.cls-9{fill:#383873;}.cls-10,.cls-21,.cls-22{fill:none;stroke:#000;stroke-linecap:round;stroke-miterlimit:10;stroke-width:0.82px;}.cls-10,.cls-17{opacity:0.15;}.cls-10,.cls-13,.cls-17,.cls-19,.cls-20,.cls-23{mix-blend-mode:overlay;}.cls-11{fill:#382424;}.cls-12{fill:#875732;}.cls-13,.cls-20{opacity:0.25;}.cls-14{fill:#25aaba;}.cls-15{fill:#162159;}.cls-16{fill:#2d4780;}.cls-18{fill:#1c9699;}.cls-19{opacity:0.1;}.cls-22{stroke-dasharray:4.15 4.15;}.cls-23{opacity:0.53;}</style></defs><title>Asset 1programmer_desk</title><g class="cls-1"><g id="Layer_2" data-name="Layer 2"><g id="Layer_1-2" data-name="Layer 1"><path class="cls-2" d="M178.37,228.52a1.22,1.22,0,0,1-1-.45l-95.3-118.5a1.22,1.22,0,0,1,.18-1.72A1.23,1.23,0,0,1,84,108l95.3,118.5a1.22,1.22,0,0,1-.18,1.72A1.19,1.19,0,0,1,178.37,228.52Z"/><path class="cls-3" d="M30.53,228.52a1.14,1.14,0,0,1-.76-.27,1.21,1.21,0,0,1-.19-1.72L124.88,108a1.23,1.23,0,0,1,1.73-.18,1.22,1.22,0,0,1,.18,1.72l-95.3,118.5A1.22,1.22,0,0,1,30.53,228.52Z"/><path class="cls-3" d="M125.84,228.52a1.22,1.22,0,0,1-1-.45l-95.3-118.5A1.23,1.23,0,0,1,31.49,108l95.3,118.5a1.22,1.22,0,0,1-.18,1.72A1.19,1.19,0,0,1,125.84,228.52Z"/><path class="cls-2" d="M47.42,112H3.15A3.15,3.15,0,0,1,0,108.8H0a3.15,3.15,0,0,1,3.15-3.14H47.42a3.15,3.15,0,0,1,3.15,3.14h0A3.15,3.15,0,0,1,47.42,112Z"/><path class="cls-3" d="M174.81,112H48.27a3.15,3.15,0,0,1-3.15-3.15h0a3.15,3.15,0,0,1,3.15-3.14H174.81Z"/><path class="cls-2" d="M81.62,168.05a3.44,3.44,0,1,1-3.43-3.44A3.44,3.44,0,0,1,81.62,168.05Z"/><path class="cls-4" d="M134.15,168.05a3.44,3.44,0,1,1-3.44-3.44A3.44,3.44,0,0,1,134.15,168.05Z"/><polygon class="cls-5" points="66.13 74.68 105.39 74.68 119.59 102.01 80.32 102.01 66.13 74.68"/><path class="cls-6" d="M81.12,100,69.36,77.36a.72.72,0,0,1,.64-1h34a.7.7,0,0,1,.63.39l11.76,22.62a.71.71,0,0,1-.63,1h-34A.72.72,0,0,1,81.12,100Z"/><rect class="cls-7" x="80.32" y="102.01" width="31.8" height="3.65"/><path class="cls-8" d="M139.44,102H108.06a1.83,1.83,0,0,0-1.82,1.82h0a1.83,1.83,0,0,0,1.82,1.83h31.38a1.83,1.83,0,0,0,1.83-1.83h0A1.83,1.83,0,0,0,139.44,102Z"/><path class="cls-7" d="M80.32,102,66.13,74.68l-.71.54a1.17,1.17,0,0,0-.34,1.48l15.24,29Z"/><rect class="cls-8" x="91.12" y="103.71" width="3.5" height="0.61"/><rect class="cls-8" x="95.52" y="103.71" width="3.5" height="0.61"/><rect class="cls-8" x="99.92" y="103.71" width="3.5" height="0.61"/><path class="cls-9" d="M151.91,157.49s-32.57,25.36-37.74,31.8c-1.94,2.44-5.34,6.71-8.86,11.09-5.78,7.2-11.91,14.69-12.64,14.87-1.16.3-10.93-7.14-11.23-8.74-.18-1,8.72-16.28,16.42-28.55,4.69-7.47,8.93-13.84,10.42-15.21,3.94-3.65,28.16-16.48,28.16-16.48Z"/><path class="cls-10" d="M89.76,209.84s30.42-43.3,45.7-50.59"/><path class="cls-11" d="M185.85,46.3c-.35.78-.74,1.6-1.18,2.44-2.38,4.55-.62,9.1-3.34,10.27a3.26,3.26,0,0,1-.55.17c-3.5.78-11.57-3.89-11.92-6.22s2.48-6.33,0-6.81-3.83,3.7-3.83,3.7c-2.05.21-2.78-3.22-6.13-3.22a5.9,5.9,0,0,0-1.4.18,9.88,9.88,0,0,0-3.84,2.12,9.51,9.51,0,0,0-1,1,6.65,6.65,0,0,1-2.85-5.61c.23-5.9,2.41-10.21,7.66-11.08.58-6.57,6-10.07,13.2-10.29,6.33-.2,7.28,5.49,7.42,6.91a15.83,15.83,0,0,0-1.85-6.91c3.16-.14,5.95,2.12,5.23,9.48.72-2.19,3.28-3.57,5.24-2-1.81,0-3.57,3.06-3.57,3.06a12.4,12.4,0,0,1,3.6,3.9C187.92,39.49,187.46,42.57,185.85,46.3Z"/><path class="cls-12" d="M181.33,59l-.08,1.08L181,63.92s-5.83,5-9.13,0l-.08-.1c-1-1.52-1.95-2-2.79-2.15-1.82-.22-3.3,1.56-4.82-.37a37.3,37.3,0,0,1-6.65-14.49,5.9,5.9,0,0,1,1.4-.18c3.35,0,4.08,3.43,6.13,3.22,0,0,1.34-4.18,3.83-3.7s-.36,4.48,0,6.81c.15,1,1.85,2.54,4,3.82,2.5,1.5,5.61,2.69,7.58,2.46l.35-.06A3.26,3.26,0,0,0,181.33,59Z"/><path class="cls-13" d="M182.24,66.14c-2.63,1.79-7.44,2.08-7.44,2.08l-3.94-.58s-1.64-2.39-.87-3.72a4.47,4.47,0,0,1,1-1.05,27.88,27.88,0,0,1,4.51-2.9,14.41,14.41,0,0,1,5.05-1.76C183.89,58,184.87,64.34,182.24,66.14Z"/><path class="cls-14" d="M181.46,130c-5.86,1.13-18.26-2.33-24.19-5-1.75-.78-3-1.5-3.24-2-1.13-2,0-3.54,2.84-9.91l1-2.34c1.92-4.51,1.92-14.13,1.92-22.42,0-7.1-.06-13.22,1.07-14.31,2.45-2.35,14.66-10.07,14.66-10.07L178,76.59s1.37,6.43,2.82,14.83C183.45,106.88,186.38,129,181.46,130Z"/><path class="cls-9" d="M185.55,135.62c0,.58-5.84,14.19-10.74,16.14s-34.39-.2-34.39-.2l-14.58,9.54,3,28.72,2.13,20,.06.65c-4.46,2.91-15.69,3.7-16.91,1.19v0c-1.17-2.53-19.07-56.4-12.06-65.74S154,123,154,123a23.81,23.81,0,0,0,4,2,76.29,76.29,0,0,0,16.17,4.09c1.86.29,3.49.5,4.73.65,1.57.18,2.52.26,2.52.26S185.55,135,185.55,135.62Z"/><path class="cls-15" d="M132.93,229.26H95a2.23,2.23,0,0,1,.63-2c1.54-1.85,5.4-3.71,9.11-5.31,3.53-1.52,6.92-2.83,8.06-3.73,2.67-2.12,1.44-6.25,1.36-6.5.41.84,2,1.32,4,1.45,4,.29,9.95-.71,12.9-2.64l-.06-.65c1.13,2.17,1.66,12.85,1.84,17.38C132.91,228.47,132.93,229.26,132.93,229.26Z"/><path class="cls-16" d="M118.18,213.13c-.12,1.81-.38,4.74-.9,5.53-.78,1.17-9.15,5.25-10.31,4.86a6.87,6.87,0,0,1-2.22-1.61c3.53-1.52,6.92-2.83,8.06-3.73,2.67-2.12,1.44-6.25,1.36-6.5C114.58,212.52,116.13,213,118.18,213.13Z"/><path class="cls-16" d="M132.93,229.26H95a2.23,2.23,0,0,1,.63-2h37.22C132.91,228.47,132.93,229.26,132.93,229.26Z"/><path class="cls-15" d="M92.67,215.25a87.28,87.28,0,0,1-5.38,11.62c-1,1.6-1.93,2.64-2.59,2.39-2.33-.88-25.77-20.81-23.53-22.26a3.76,3.76,0,0,1,1.51-.45,45.22,45.22,0,0,1,8.54.35c2.68.28,5.18.58,6.48.58,3.31,0,3.74-1,3.74-1a6.14,6.14,0,0,0,1.62,2C86,211.25,91.79,215.48,92.67,215.25Z"/><path class="cls-16" d="M83.06,208.5a10.86,10.86,0,0,1-11.17.56,2.26,2.26,0,0,1-.67-2.16c2.68.28,5.18.58,6.48.58,3.31,0,3.74-1,3.74-1A6.14,6.14,0,0,0,83.06,208.5Z"/><path class="cls-16" d="M87.29,226.87c-1,1.6-1.93,2.64-2.59,2.39-2.33-.88-25.77-20.81-23.53-22.26a3.76,3.76,0,0,1,1.51-.45Z"/><path class="cls-12" d="M157.28,105.15c-1.83,2.56-5.11,6.45-7.81,6.06l-.34-.06c-5.16-.91-35.48-8.51-36.91-8.8s-11.67-.38-11.08-1.45,6.41-4.47,8-4.39,7.68,1.86,13.81,1.66,22.17,0,22.17,0l.78-1.34,1.14-2C146.69,100.79,153.85,105.64,157.28,105.15Z"/><path class="cls-10" d="M157.28,127.3s-1.39,7.44,4.05,9.92"/><path class="cls-10" d="M154.42,133.28s-36,15.37-37.75,20.13,9.17,56.43,9.17,56.43"/><path class="cls-17" d="M185.55,135.62c0,.58-5.84,14.19-10.74,16.14s-34.39-.2-34.39-.2l-14.58,9.54,3,28.72s-6.16-32.81-6.16-34.95c0-1.84,40.74-13.55,51.48-25.8,4.21.66,7.25.91,7.25.91S185.55,135,185.55,135.62Z"/><path class="cls-13" d="M166.34,100.8c-2.53,3.58-6.61,8.13-9.47,12.26l1-2.34c1.92-4.51,1.92-14.13,1.92-22.42l8.73-5.78S170.42,95,166.34,100.8Z"/><path class="cls-18" d="M158.88,104.05c-.38.34-.76.69-1.15,1a1.56,1.56,0,0,1-.45.1c-3.43.49-10.59-4.36-10.27-10.3a8.9,8.9,0,0,1,1-2.48c2.93-5.91,11.75-19.06,13.37-18.46,0,0,5.66.88,7.2,8.61C170,89.78,164.77,98.59,158.88,104.05Z"/><path class="cls-13" d="M178.94,129.72c-1.24-.15-2.87-.36-4.73-.65A76.29,76.29,0,0,1,158,125c4.41-.15,13.83-3,15-24.62a104.76,104.76,0,0,0,2.37,12.5A168.52,168.52,0,0,1,178.94,129.72Z"/><path class="cls-19" d="M176.62,58.57a16.39,16.39,0,0,0-1.08,1.4,27.88,27.88,0,0,0-4.51,2.9,3.26,3.26,0,0,0-2.06-1.2l3.88-4.89A21.28,21.28,0,0,0,176.62,58.57Z"/><path class="cls-19" d="M157.28,105.15c-1.83,2.56-5.11,6.45-7.81,6.06l-.34-.06c-3.34-4.83-3.46-11.15-3.26-14.32l1.14-2C146.69,100.79,153.85,105.64,157.28,105.15Z"/><path class="cls-13" d="M185.85,46.3c-.35.78-.74,1.6-1.18,2.44a16.55,16.55,0,0,0-1.53,6.3,11.11,11.11,0,0,0-1.2-.82,21.2,21.2,0,0,0-5.32,4.35h0c-3.57-1.28-7.51-4-7.75-5.62-.36-2.33,2.48-6.33,0-6.81s-3.83,3.7-3.83,3.7c-2.05.21-2.78-3.22-6.13-3.22a5.9,5.9,0,0,0-1.4.18,9.88,9.88,0,0,0-3.84,2.12s3.78-5.31,9.71-4.24c0,0-.87-1.65-4.86-1.45,8.37-2.73,13.71-1.66,16.29,1.35C176.9,47.06,181.84,50.1,185.85,46.3Z"/><path class="cls-7" d="M202.86,161.1H173.68s23.14-6.81,23.14-52.71v-1.76C196.58,76,190,59,181.94,54.22a35.13,35.13,0,0,1,10.34-3.92,53.6,53.6,0,0,1,6.44-1c20-2,35.94,5.79,37.84,14.66S226.77,161.1,202.86,161.1Z"/><path class="cls-5" d="M196.82,108.39c0,45.9-23.14,52.71-23.14,52.71H125.84l2-1.42,12.59-8.12,25.29-1.75c1.35-5.64,5-5.83,10.69-6.42,3.28-.33,3.6-5.87,2.61-13.2a167.72,167.72,0,0,0-3.63-17.33,104.76,104.76,0,0,1-2.37-12.5,107.34,107.34,0,0,1-.91-13.48A113.07,113.07,0,0,1,174.45,63c.11-.58.23-1.14.36-1.67v-.06a12.32,12.32,0,0,1,1.8-2.66h0a21.2,21.2,0,0,1,5.32-4.35,11.11,11.11,0,0,1,1.2.82c7.52,5.73,13.45,22.45,13.68,51.59Z"/><path class="cls-7" d="M187.59,229.26H153.15a1.24,1.24,0,0,1-.76-2.22L161,220.3a15.82,15.82,0,0,0,6.05-12.44V161.1h6.62v46.76a15.8,15.8,0,0,0,6.06,12.44l8.61,6.74A1.24,1.24,0,0,1,187.59,229.26Z"/><g class="cls-20"><path class="cls-21" d="M213.86,51s.25.64.66,1.93"/><path class="cls-22" d="M215.68,56.93a161.15,161.15,0,0,1,3.9,20.53c3.13,24.16-.05,58.06-21.05,79.54"/><path class="cls-21" d="M197,158.46c-.49.47-1,.94-1.5,1.39"/></g><path class="cls-17" d="M173.68,161.1v12.76a45.74,45.74,0,0,1-6.62,2.79V161.1Z"/><path class="cls-17" d="M182.82,141.26c-1.56,4.86-11.27,4-12.45,7.58-2.5,7.63-3.89,4.28-13.5,5.25-5.5.56-9.5,4.08-11.91,7H125.84l2-1.42,12.59-8.12,25.29-1.75c1.35-5.64,5-5.83,10.69-6.42,3.28-.33,3.6-5.87,2.61-13.2a167.72,167.72,0,0,0-3.63-17.33,104.76,104.76,0,0,1-2.37-12.5,107.34,107.34,0,0,1-.91-13.48C175.84,106.38,184,137.65,182.82,141.26Z"/><path class="cls-17" d="M196.82,108.39v-1.76C196.58,76,190,59,181.94,54.22a35.13,35.13,0,0,1,10.34-3.92c-1.33,1.92-2.72,4.81-2.07,7.9,1.17,5.46,14.4,26.46,9.34,60.11-3.65,24.27-2.44,36.9,1.37,42.79H173.68S196.82,154.29,196.82,108.39Z"/><path class="cls-14" d="M51.68,44.11c-1,3.8-5.85,11.19-10.24,19.09-4.79,8.63-9.08,17.87-7.4,23.74a13.25,13.25,0,0,1,.6,3.33c0,2.55-1.92,1.76-3.88.31a36.35,36.35,0,0,1-4-3.64l.15-11.38s-6.45-5.92-1.15-18.89c.33-.82.72-1.67,1.15-2.55,7.29-14.73,18.23-30.2,7.87-34.57C49.06,18.67,53.88,36.14,51.68,44.11Z"/><g class="cls-23"><path d="M34.77,19.55a10.61,10.61,0,0,1,6.49,4.66,15,15,0,0,1,1,1.8,18.49,18.49,0,0,1,.7,1.93,14.79,14.79,0,0,1,.48,2l.17,1,.07,1a25.78,25.78,0,0,1-1.85,8c-.95,2.56-2,5.06-3.19,7.55-2.28,5-4.73,9.84-6.9,14.83A68.67,68.67,0,0,0,28.88,70,24.74,24.74,0,0,0,28,73.9a8.47,8.47,0,0,0,.26,3.86h0a.41.41,0,0,1-.25.52.39.39,0,0,1-.52-.25h0a9.27,9.27,0,0,1-.25-4.24,24.92,24.92,0,0,1,.92-4,68.28,68.28,0,0,1,3-7.66c2.24-5,4.75-9.84,7.09-14.77,1.16-2.46,2.29-4.94,3.27-7.48A25.44,25.44,0,0,0,43.47,32l0-1-.16-1a13.5,13.5,0,0,0-.45-2,16.8,16.8,0,0,0-.67-1.92,14.69,14.69,0,0,0-1-1.79A10.54,10.54,0,0,0,34.77,19.55Z"/></g><path class="cls-18" d="M45.12,67.1c-4.37,11.52,0,20.26-6.57,21.51-3,.57-4.33-1.65-4.87-4.24a23.15,23.15,0,0,1-.22-6.62,22.32,22.32,0,0,1,3.45-5.62A13.88,13.88,0,0,1,45.12,67.1Z"/><path class="cls-7" d="M29.88,81.38c0,2.69-.63,5-1.88,6.16a3.45,3.45,0,0,1-.36.32c-3.1,2.51-5.08-2.09-5.08-2.09S14.31,81.7,10.22,73.44C7.08,67.1,6.39,58.28,13.76,46.93c1.08,8.08,5.51,13.58,9.9,18.8h0l1.63,1.94A22.53,22.53,0,0,1,29.88,81.38Z"/><g class="cls-23"><path d="M13.76,46.93a36.15,36.15,0,0,0-.56,10.58,22.9,22.9,0,0,0,3.25,10c1.83,3,4.37,5.5,6.68,8.21a20.46,20.46,0,0,1,3,4.47,10.65,10.65,0,0,1,1,5.37.41.41,0,0,1-.44.37.42.42,0,0,1-.38-.44h0a9.91,9.91,0,0,0-.82-5,19.83,19.83,0,0,0-2.85-4.36c-2.23-2.73-4.76-5.3-6.57-8.4A23.07,23.07,0,0,1,13,57.52,36.22,36.22,0,0,1,13.76,46.93Z"/></g><g class="cls-20"><path d="M45.12,67.1c-1.25,1.45-2.42,3-3.53,4.53s-2.17,3.15-3.12,4.81a30.27,30.27,0,0,0-4,10.55v0a.41.41,0,1,1-.81-.12h0a30.83,30.83,0,0,1,4.49-10.65c1-1.64,2.14-3.2,3.3-4.72S43.82,68.5,45.12,67.1Z"/></g><path class="cls-7" d="M42.47,87.23l-2.8,17.18a1.54,1.54,0,0,1-1.51,1.25H20.72a1.54,1.54,0,0,1-1.51-1.25l-2.27-14-.53-3.23a1.53,1.53,0,0,1,1.51-1.81H41A1.53,1.53,0,0,1,42.47,87.23Z"/><path class="cls-5" d="M45.12,90.73H13.76l.83-4.68a2.07,2.07,0,0,1,2-1.71H42.27a2.06,2.06,0,0,1,2,1.71Z"/><path class="cls-13" d="M33.46,77.75a23.16,23.16,0,0,0,.21,6.59h-4.1a15.73,15.73,0,0,0,.31-3,22.53,22.53,0,0,0-4.59-13.7l-1.63-1.94h0a25.77,25.77,0,0,1,2.08-9.06C26,60.8,27,68,31.11,68.75c3.14.58,7.22-2.53,10.33-5.55-1.64,3-3.22,6-4.53,8.93A22.32,22.32,0,0,0,33.46,77.75Z"/><path class="cls-13" d="M31.13,105.66H20.72a1.54,1.54,0,0,1-1.51-1.25L17,90.73h9A25.92,25.92,0,0,0,26.16,99,12.3,12.3,0,0,0,31.13,105.66Z"/><path class="cls-3" d="M287.73,4.89H213.66a2.45,2.45,0,0,1-2.44-2.45h0A2.44,2.44,0,0,1,213.66,0h74.07a2.45,2.45,0,0,1,2.45,2.44h0A2.45,2.45,0,0,1,287.73,4.89Z"/><path class="cls-14" d="M261.28,15.52H213.66a2.45,2.45,0,0,1-2.44-2.45h0a2.44,2.44,0,0,1,2.44-2.44h47.62a2.45,2.45,0,0,1,2.45,2.44h0A2.45,2.45,0,0,1,261.28,15.52Z"/><path class="cls-14" d="M261.28,26.93H213.66a2.45,2.45,0,0,1-2.44-2.45h0A2.44,2.44,0,0,1,213.66,22h47.62a2.45,2.45,0,0,1,2.45,2.44h0A2.45,2.45,0,0,1,261.28,26.93Z"/></g></g></g></svg>